<svg xmlns="http://www.w3.org/2000/svg" width="400" height="300" viewBox="0 0 400 300" fill="none">
  <rect width="400" height="300" rx="12" fill="#f4f4f5"/>
  <rect x="1" y="1" width="398" height="298" rx="11" stroke="#e4e4e7" stroke-width="2"/>
  <path
    d="M200 108c-12.5 9-17.5 18-17.5 26.5 0 6 4.5 11 10.5 11 3 0 6-1.5 8-4 2 2.5 5 4 8 4 6 0 10.5-5 10.5-11 0-8.5-5-17.5-17.5-26.5-2.5-1.8-5.2-2.7-8-2.7s-5.5.9-8 2.7z"
    fill="#d4d4d8"
  />
  <text
    x="200"
    y="188"
    text-anchor="middle"
    font-family="system-ui, sans-serif"
    font-size="14"
    fill="#a1a1aa"
  >
    Image
  </text>
</svg>
